<?xml version="1.0" encoding="UTF-8" standalone="no"?>
<svg
   width="360"
   height="369"
   version="1.1"
   id="svg518"
   sodipodi:docname="access_deaf_unknown.svg"
   inkscape:version="1.2.2 (732a01da63, 2022-12-09)"
   xmlns:inkscape="http://www.inkscape.org/namespaces/inkscape"
   xmlns:sodipodi="http://sodipodi.sourceforge.net/DTD/sodipodi-0.dtd"
   xmlns="http://www.w3.org/2000/svg"
   xmlns:svg="http://www.w3.org/2000/svg">
  <defs
     id="defs522" />
  <sodipodi:namedview
     id="namedview520"
     pagecolor="#ffffff"
     bordercolor="#000000"
     borderopacity="0.25"
     inkscape:showpageshadow="2"
     inkscape:pageopacity="0.0"
     inkscape:pagecheckerboard="0"
     inkscape:deskcolor="#d1d1d1"
     showgrid="false"
     inkscape:zoom="2.2682927"
     inkscape:cx="176.78494"
     inkscape:cy="220.43011"
     inkscape:window-width="1920"
     inkscape:window-height="1017"
     inkscape:window-x="-8"
     inkscape:window-y="-8"
     inkscape:window-maximized="1"
     inkscape:current-layer="svg518" />
  <path
     fill="#17128b"
     d="M0 0h360v369H0z"
     id="path514"
     style="fill:#ffffff" />
  <path
     fill="#fff"
     d="M 4.2731186,369 H -44.526881 v -55.9 l 85.7,-86.7 c 22.2,12.8 45.8,27.2 64.900001,39.5 z M 14.673119,148.3 c -0.7,-0.6 -1.3,-1.5 -1,-2.9 4.4,-20.9 13.7,-40.4 28.5,-55.9 12.3,-12.8 28.2,-22.4 45.4,-28.1 11.4,-3.8 23.300001,-5.4 35.300001,-5.4 36.8,0.2 71.9,19.5 92,50.3 21.5,32.8 24.6,73.8 6.2,112.2 -7,14.5 -15.9,23.4 -26.6,33.4 -10,9.2 -17.6,18 -23.9,25.9 -7.6,9.4 -13.2,17.9 -16.5,25.8 -5.7,13.5 -9,22.2 -19.5,31.6 -7.6,6.8 -16.6,11.2 -26.8,12.1 -16.400001,1.6 -28.800001,-2.7 -38.000001,-10.2 -1.4,-1.1 -3.2,-4.1 -3.3,-7 -0.1,-5.2 2.8,-8.4 8.1,-8.5 3.1,0 4.9,1.9 7.7,3.8 10,6.8 23.000001,8.8 36.300001,0.5 11.6,-7.4 16.8,-25.2 23.5,-37.7 10.8,-20.4 26.3,-38.1 43.2,-53.6 25.1,-23.2 36,-58.6 24.9,-94.6 -5.8,-19.1 -17.9,-36.1 -34.3,-47.8 -10.5,-7.5 -23.3,-13.1 -36.4,-15.5 -19.7,-3.7 -38.2,-2.3 -58.600001,8 -13.6,6.8 -26,18.2 -34.4,30.5 -8.4,12.2 -13.4,25.9 -15.1,40.7 -0.1,0.5 -0.5,0.8 -1.1,0.6 -0.5,-0.2 -1.1,-0.4 -1.6,-0.7 -5.6,-2.3 -9.8,-4.5 -14,-7.5 z m 39.4,-9.5 c -0.9,-0.7 -1.1,-1.6 -0.6,-2.8 7.7,-17.1 21.1,-31 38.2,-38.8 10.100001,-4.5 21.200001,-7 32.300001,-6.9 19.4,0.1 38.5,7.8 52.6,21.2 17.7,16.9 26.3,42.1 22.9,66.3 -1.9,13.8 -7.2,28.6 -16.3,37.4 -0.2,0.2 -0.5,0.4 -1,0.4 -3.1,-0.4 -6,-1.3 -9.4,-4.2 -1.2,-1 -1.7,-1.5 -2.3,-2.3 -0.3,-0.4 -0.4,-1.2 0.1,-1.9 7.3,-8.6 12.3,-20.6 13.9,-31.8 2.6,-18.7 -6,-38.6 -19.7,-51.7 -10.9,-10.4 -19.9,-16.6 -41.7,-16.5 -21.8,0.2 -41.700001,10.5 -52.900001,32 -0.8,1.6 -1.6,3.3 -2.2,4.9 -0.3,0.7 -1,1 -2,0.7 -1.6,-0.4 -3.2,-0.7 -4.7,-1.4 -3.1,-1.4 -5,-2.9 -7.2,-4.6 z M 199.47312,66 l 65.3,-66 h 50.7 v 53.9 c 0,0 -59.3,60.2 -71.4,72.3 -0.7,0.7 -1.1,0.7 -1.3,-0.1 -8.2,-24.1 -23.5,-44.9 -43.3,-60.1 z"
     id="path516"
     style="fill:#000000" />
  <text
     xml:space="preserve"
     style="font-size:252.998px;fill:#000000;stroke-width:21.0831"
     x="226.73112"
     y="344.31183"
     id="text12245"><tspan
       sodipodi:role="line"
       id="tspan12243"
       x="226.73112"
       y="344.31183"
       style="stroke-width:21.0831">?</tspan></text>
</svg>
