<?xml version="1.0" encoding="UTF-8" standalone="no"?>
<svg
   width="360"
   height="369"
   version="1.1"
   id="svg518"
   sodipodi:docname="access_mental_disabled_unknown.svg"
   inkscape:version="1.2.2 (732a01da63, 2022-12-09)"
   xmlns:inkscape="http://www.inkscape.org/namespaces/inkscape"
   xmlns:sodipodi="http://sodipodi.sourceforge.net/DTD/sodipodi-0.dtd"
   xmlns="http://www.w3.org/2000/svg"
   xmlns:svg="http://www.w3.org/2000/svg">
  <defs
     id="defs522" />
  <sodipodi:namedview
     id="namedview520"
     pagecolor="#ffffff"
     bordercolor="#000000"
     borderopacity="0.25"
     inkscape:showpageshadow="2"
     inkscape:pageopacity="0.0"
     inkscape:pagecheckerboard="0"
     inkscape:deskcolor="#d1d1d1"
     showgrid="false"
     inkscape:zoom="2.2682927"
     inkscape:cx="176.78494"
     inkscape:cy="198.3871"
     inkscape:window-width="1920"
     inkscape:window-height="1017"
     inkscape:window-x="-8"
     inkscape:window-y="-8"
     inkscape:window-maximized="1"
     inkscape:current-layer="svg518" />
  <g
     fill="#ffffff"
     transform="matrix(36.26627,0,0,-36.273634,43.823726,368.04309)"
     id="g5343">
    <path
       fill-rule="nonzero"
       fill="#ffffff"
       d="m 0,0 c -0.652,0 -1.182,0.529 -1.182,1.184 v 7.523 c 0,0.652 0.53,1.182 1.182,1.182 h 7.527 c 0.653,0 1.182,-0.53 1.182,-1.182 V 1.184 C 8.709,0.529 8.18,0 7.527,0 Z"
       id="path5341" />
  </g>
  <g
     transform="matrix(36.26627,0,0,-36.273634,43.823726,16.573337)"
     stroke="#000000"
     stroke-dasharray="none"
     stroke-miterlimit="4"
     stroke-width="0.04"
     fill="#003984"
     id="g5347"
     style="fill:#ffffff">
    <path
       d="m 0,0 c -0.541,0 -0.98,-0.441 -0.98,-0.982 v -7.524 c 0,-0.541 0.439,-0.982 0.98,-0.982 h 7.527 c 0.541,0 0.983,0.441 0.983,0.982 v 7.524 C 8.51,-0.441 8.068,0 7.527,0 Z"
       fill-rule="nonzero"
       stroke="#000000"
       stroke-miterlimit="4"
       stroke-dasharray="none"
       stroke-width="0.04"
       fill="#003984"
       id="path5345"
       style="fill:#ffffff" />
  </g>
  <path
     style="color:#000000;text-indent:0;text-align:start;text-transform:none;direction:ltr;baseline-shift:baseline;fill:#000000;enable-background:accumulate"
     d="M 132.15716,73.553302 C 82.682126,72.445068 52.04294,94.082257 34.519972,119.06459 16.997901,144.04693 12.118553,171.79492 12.717598,185.0887 c 0.587817,13.06923 2.200863,45.9525 16.926613,65.63311 17.991084,24.04252 31.779884,39.61231 32.563665,70.11698 0.279829,10.89366 -0.707304,18.76949 -1.737501,23.82012 -1.030196,5.05063 -2.017741,7.0621 -2.017741,7.0621 a 3.5994954,3.5994954 0 1 0 6.557571,2.97047 c 0,0 1.325486,-3.03935 2.466129,-8.63145 1.140661,-5.59229 2.198891,-13.97282 1.905645,-25.38947 -0.83843,-32.639 -16.13225,-50.3754 -33.966219,-74.20807 C 22.944142,229.79541 20.468686,197.60982 19.890446,184.75367 19.398009,173.80495 23.989422,146.56005 40.405053,123.15604 56.819787,99.752022 84.641126,79.666074 131.98723,80.727854 c 49.14681,1.100898 78.22202,23.194166 95.50645,45.624286 8.64203,11.21452 14.30911,22.53056 17.76725,31.2759 1.7291,4.37249 2.88671,8.0828 3.64305,10.81725 0.37824,1.36727 0.66706,2.49644 0.84073,3.30694 0.17361,0.81038 0.23937,1.48849 0.22419,1.23307 0.0583,0.98229 -0.41955,3.78779 -1.12097,7.17419 -0.70142,3.3864 -1.55262,7.5121 -1.7375,11.93822 -0.48144,11.5257 6.76975,21.23561 13.50758,29.59355 3.369,4.17879 6.67002,8.04729 9.07983,11.48983 2.40982,3.44271 3.78063,6.42646 3.86725,8.40725 0.0782,1.78717 -0.32831,2.19459 -1.7375,3.13871 -1.40919,0.94415 -3.90025,1.78584 -6.61371,2.63437 -2.71346,0.84844 -5.62062,1.66855 -8.18306,3.5871 -2.56244,1.91854 -4.30183,5.85539 -3.30695,9.75241 1.48949,5.83388 2.62755,8.55415 3.475,10.14467 0.2673,0.50164 0.32835,0.53464 0.44839,0.72863 -0.139,1.48931 -0.61951,2.0511 -1.5133,2.85856 -0.48207,0.43546 -1.0763,0.87432 -1.79355,1.51331 -0.71726,0.63898 -1.84646,1.6429 -2.12984,3.53113 -0.16375,1.09136 0.30953,2.73086 1.12097,3.5871 0.81143,0.85628 1.50609,1.06047 2.01774,1.23307 0.7478,0.25224 1.0456,0.32459 1.34516,0.39233 -0.004,0.10277 0.0108,-0.18862 -0.1121,0.28025 -2.69086,10.29622 -3.1118,14.12921 -2.69032,17.43113 0.42157,3.30175 1.26669,4.87433 1.00887,13.39566 -0.20082,6.63756 -2.56119,8.53854 -6.44565,9.97661 -3.88447,1.4381 -9.42994,1.44079 -14.1242,1.56936 -15.03137,0.41165 -23.66946,5.07843 -28.13718,11.09758 -4.46702,6.01915 -4.53858,12.755 -4.48388,16.25403 a 3.5875379,3.5875379 0 1 0 7.1742,-0.1121 c -0.0504,-3.23143 0.14635,-7.92587 3.08275,-11.88226 2.93622,-3.95638 8.84596,-7.80821 22.53055,-8.18306 4.39707,-0.12035 10.65243,0.11837 16.42209,-2.01774 5.76985,-2.13612 10.88505,-7.60106 11.15372,-16.47823 0.27465,-9.07679 -0.78213,-12.30177 -1.06492,-14.51662 -0.28279,-2.21467 -0.16178,-4.62879 2.46613,-14.68468 0.52693,-2.0163 0.61225,-4.03566 -0.28024,-5.77307 -0.433,-0.84288 -1.04919,-1.47887 -1.68145,-1.96178 1.53077,-1.57515 3.19556,-4.01791 3.3629,-7.45435 0.0416,-0.85529 -0.25935,-2.15782 -0.61653,-2.85856 -0.35719,-0.70058 -0.4808,-0.82401 -0.72863,-1.28911 -0.49565,-0.93021 -1.45184,-3.06607 -2.85856,-8.57531 -0.45308,-1.77459 -0.37081,-1.50271 0.61653,-2.24194 0.98735,-0.73923 3.35268,-1.62171 6.05323,-2.46613 2.70055,-0.84442 5.72788,-1.69833 8.4634,-3.53114 2.73552,-1.83264 5.11268,-5.29348 4.93225,-9.41613 -0.19268,-4.40495 -2.429,-8.2661 -5.15645,-12.16241 -2.72745,-3.89648 -6.1438,-7.82328 -9.41613,-11.88225 -6.54465,-8.11778 -12.22554,-16.61364 -11.88225,-24.82989 0.15532,-3.71731 0.87856,-7.42619 1.56935,-10.76129 0.69079,-3.3351 1.4625,-6.16281 1.28911,-9.07984 -0.0477,-0.80157 -0.18342,-1.32313 -0.39234,-2.29789 -0.20891,-0.97485 -0.54073,-2.20965 -0.95282,-3.6992 -0.82419,-2.97926 -2.0389,-6.92255 -3.86725,-11.54596 -3.65884,-9.30852 -9.57755,-21.20513 -18.72464,-33.07483 C 214.90978,98.17917 183.39714,74.640641 132.13752,73.49277 Z"
     stroke="#000000"
     stroke-miterlimit="4"
     stroke-dasharray="none"
     stroke-width="1.43484"
     fill="#fffaff"
     id="path5349" />
  <path
     stroke-linejoin="miter"
     d="m 186.3582,204.23662 c -1.59074,5.69326 0,6.46126 -4.7382,10.98423 -4.7382,4.52297 -3.87675,6.24585 -8.61513,7.53811 -4.7382,1.29225 -2.41717,1.73402 -8.21894,1.33913 -2.39367,-0.16285 -1.74356,-0.64325 -4.87899,0.22651 -1.46749,0.4071 -4.63775,2.95164 -8.72991,2.95164 -4.09216,0 -5.42011,-1.53108 -8.00461,-1.31569 -2.5845,0.21537 -3.19018,0.48709 -5.45472,0.45976 -9.85967,-0.11892 -5.19914,-2.55115 -18.34082,-3.01532 -3.43537,-0.12142 -1.40274,0.90838 0,2.58451 0.88508,1.05758 3.61866,0.47177 2.82896,5.65218 -0.29127,1.91049 3.06159,1.79857 2.98626,4.47042 -0.11282,3.99998 -1.42733,5.28631 -6.46126,7.32288 -1.79696,0.72696 -4.9536,-1.72302 -5.59982,0.43074 -0.64614,2.15369 0.8615,8.61513 0,8.61513 -0.86151,0 -4.01485,13.84566 -19.257334,13.97049 -7.45416,0.061 -18.42512,-0.34883 -30.065248,-15.90878 -6.287104,-8.40456 -9.936975,-7.95456 -10.984228,-10.33801 -2.402997,-5.46871 -0.83922,-7.49793 -0.47764,-9.63387 0.401934,-2.37412 4.005531,-2.64853 0.850357,-4.0509 -3.364518,-1.49534 -8.165488,-4.22255 -9.552439,-12.53762 -0.240282,-1.44051 -2.118001,-6.11547 -1.990839,-15.1467 0.03533,-2.51151 -5.845533,-3.80896 3.66691,-27.20813 0.688005,-1.69234 0.944124,-8.26144 3.744032,-11.92279 2.799909,-3.66135 3.064098,-6.2437 2.85784,-10.24439 -0.06313,-1.22424 4.015038,-5.21815 8.81816,-9.48213 1.275805,-1.13258 7.226566,-12.7742 14.511605,-16.41546 0.75567,-0.3777 -0.13273,-4.87989 4.679,-6.70446 3.20561,-1.21563 5.25833,-0.94005 5.7225,-2.14257 2.04967,-5.3098 10.75986,-6.30397 13.26078,-6.53713 3.375644,-0.31471 7.456684,-0.12716 7.672084,-1.19292 0.47122,-2.3318 6.32047,-4.8442 9.12719,-5.05297 2.57482,-0.19148 2.57966,2.0285 5.62313,0.35602 1.08245,-0.59483 4.35886,-1.72973 6.72796,-1.72973 2.3691,0 5.52503,1.5891 7.89413,1.80449 2.36909,0.21538 4.78644,-4.755419 14.21476,0.64612 0.64504,0.36956 3.85452,-3.876036 10.39613,1.5255 1.39995,1.15596 12.27881,0.41919 17.35294,8.16083 1.16024,1.77023 7.195,-2.28426 22.2938,12.33441 20.48233,19.82947 14.27611,24.56803 14.40686,26.40283 0.14887,2.0911 1.55336,3.69919 1.86798,6.96004 0.59248,6.13896 0.64172,13.21505 -2.58899,18.5991 -3.23071,5.38441 -3.68825,11.2086 -27.51482,17.11799 -0.11317,8.17033 1.20021,5.71603 -0.0318,10.12547 z"
     stroke="#000000"
     stroke-linecap="butt"
     stroke-miterlimit="4"
     stroke-dasharray="none"
     stroke-width="1.43484"
     fill="#ffffff"
     id="path5351"
     style="fill:#000000" />
  <text
     xml:space="preserve"
     style="font-size:235.491px;fill:#000000;stroke-width:19.6243"
     x="232.06662"
     y="198.82796"
     id="text12051"><tspan
       sodipodi:role="line"
       id="tspan12049"
       x="232.06662"
       y="198.82796"
       style="stroke-width:19.6243">?</tspan></text>
</svg>
