<?xml version="1.0" encoding="UTF-8" standalone="no"?>
<svg
   width="360"
   height="369"
   version="1.1"
   id="svg518"
   sodipodi:docname="access_blind_limited.svg"
   inkscape:version="1.2.2 (732a01da63, 2022-12-09)"
   xmlns:inkscape="http://www.inkscape.org/namespaces/inkscape"
   xmlns:sodipodi="http://sodipodi.sourceforge.net/DTD/sodipodi-0.dtd"
   xmlns="http://www.w3.org/2000/svg"
   xmlns:svg="http://www.w3.org/2000/svg">
  <defs
     id="defs522" />
  <sodipodi:namedview
     id="namedview520"
     pagecolor="#ffffff"
     bordercolor="#000000"
     borderopacity="0.25"
     inkscape:showpageshadow="2"
     inkscape:pageopacity="0.0"
     inkscape:pagecheckerboard="0"
     inkscape:deskcolor="#d1d1d1"
     showgrid="false"
     inkscape:zoom="2.2682927"
     inkscape:cx="176.78494"
     inkscape:cy="184.72043"
     inkscape:window-width="1920"
     inkscape:window-height="1017"
     inkscape:window-x="-8"
     inkscape:window-y="-8"
     inkscape:window-maximized="1"
     inkscape:current-layer="svg518" />
  <g
     fill="#ffffff"
     transform="matrix(36.355413,0,0,-36.362796,43.047372,368.48395)"
     id="g5319">
    <path
       fill-rule="nonzero"
       fill="#ffffff"
       d="m 0,0 c -0.652,0 -1.182,0.529 -1.182,1.184 v 7.523 c 0,0.652 0.53,1.182 1.182,1.182 h 7.527 c 0.653,0 1.182,-0.53 1.182,-1.182 V 1.184 C 8.709,0.529 8.18,0 7.527,0 Z"
       id="path5317" />
  </g>
  <g
     transform="matrix(36.355413,0,0,-36.362796,43.047372,16.15013)"
     stroke="#000000"
     stroke-dasharray="none"
     stroke-miterlimit="4"
     stroke-width="0.04"
     fill="#003984"
     id="g5323"
     style="fill:#ffcc00">
    <path
       d="m 0,0 c -0.541,0 -0.98,-0.441 -0.98,-0.982 v -7.524 c 0,-0.541 0.439,-0.982 0.98,-0.982 h 7.527 c 0.541,0 0.983,0.441 0.983,0.982 v 7.524 C 8.51,-0.441 8.068,0 7.527,0 Z"
       fill-rule="nonzero"
       stroke="#000000"
       stroke-miterlimit="4"
       stroke-dasharray="none"
       stroke-width="0.04"
       fill="#003984"
       id="path5321"
       style="fill:#ffcc00" />
  </g>
  <g
     transform="matrix(36.355413,0,0,-36.362796,156.23283,56.381935)"
     stroke="#000000"
     stroke-dasharray="none"
     stroke-miterlimit="4"
     stroke-width="0.04"
     fill="#ffffff"
     id="g5327">
    <path
       d="M 0,0 C 0.004,0.358 -0.291,0.655 -0.65,0.651 -1.018,0.655 -1.314,0.358 -1.313,0 -1.314,-0.367 -1.018,-0.661 -0.65,-0.662 -0.291,-0.661 0.004,-0.367 0,0"
       fill-rule="nonzero"
       stroke="#000000"
       stroke-miterlimit="4"
       stroke-dasharray="none"
       stroke-width="0.04"
       fill="#ffffff"
       id="path5325" />
  </g>
  <g
     transform="matrix(36.355413,0,0,-36.362796,224.96664,187.20479)"
     stroke="#000000"
     stroke-dasharray="none"
     stroke-miterlimit="4"
     stroke-width="0.04"
     fill="#ffffff"
     id="g5331">
    <path
       d="m 0,0 -2.104,2.552 c -0.109,0.162 -0.718,0.23 -0.976,0.023 l -1.024,-1.862 0.252,-1.574 c 0.256,-0.411 0.764,0.005 0.622,0.229 l -0.172,1.115 0.423,0.816 -0.021,-2 -0.92,-2.873 c -0.182,-0.61 0.717,-0.864 0.897,-0.277 l 1.138,3.173 -0.011,1.614 -0.53,0.626 c -0.025,0.03 -0.021,0.076 0.01,0.102 0.031,0.025 0.076,0.022 0.102,-0.009 l 1.75,-2.069 C -0.283,-0.799 0.281,-0.39 0,0"
       fill-rule="nonzero"
       stroke="#000000"
       stroke-miterlimit="4"
       stroke-dasharray="none"
       stroke-width="0.04"
       fill="#ffffff"
       id="path5329" />
  </g>
  <g
     transform="matrix(36.355413,0,0,-36.362796,195.711,315.92895)"
     stroke="#000000"
     stroke-dasharray="none"
     stroke-miterlimit="4"
     stroke-width="0.04"
     fill="#ffffff"
     id="g5335">
    <path
       d="M 0,0 -1.033,2.571 -1.455,1.39 -0.852,-0.345 C -0.607,-0.916 0.25,-0.582 0,0"
       fill-rule="nonzero"
       stroke="#000000"
       stroke-miterlimit="4"
       stroke-dasharray="none"
       stroke-width="0.04"
       fill="#ffffff"
       id="path5333" />
  </g>
  <g
     transform="matrix(36.355413,0,0,-36.362796,295.33589,337.37911)"
     stroke="#000000"
     stroke-dasharray="none"
     stroke-miterlimit="4"
     stroke-width="0.04"
     fill="#ffffff"
     id="g5339">
    <path
       d="M 0,0 C 0.002,-0.002 0.004,-0.005 0.004,-0.006 0.045,-0.055 0.117,-0.06 0.166,-0.02 0.209,0.018 0.217,0.083 0.188,0.13 L -1.76,3.511 C -1.762,3.513 -1.764,3.515 -1.766,3.518 -1.805,3.564 -1.877,3.571 -1.926,3.53 -1.969,3.493 -1.973,3.431 -1.945,3.381 Z"
       fill-rule="nonzero"
       stroke="#000000"
       stroke-miterlimit="4"
       stroke-dasharray="none"
       stroke-width="0.04"
       fill="#ffffff"
       id="path5337" />
  </g>
</svg>
