<?xml version="1.0" encoding="iso-8859-1"?>
<!-- Uploaded to: SVG Repo, www.svgrepo.com, Generator: SVG Repo Mixer Tools -->
<svg fill="#000000" height="800px" width="800px" version="1.1" id="Layer_1" xmlns="http://www.w3.org/2000/svg" xmlns:xlink="http://www.w3.org/1999/xlink" 
	 viewBox="0 0 512 512" xml:space="preserve">
<g>
	<g>
		<path d="M441.383,145.879c-0.132-26.378-21.701-47.838-48.08-47.838c-10.634,0-91.09,0-101.709,0
			c-20.415,0-39.139,11.15-48.868,29.099l-15.474,28.554l-10.489,19.355l-29.265,8.52c-3.547,6.756-8.642,12.571-14.812,16.981
			h11.138c14.043,0,26.671,6.27,35.249,16.148l17.19-5.005c5.121-1.491,9.602-5.062,12.183-9.827
			c7.739-14.139,25.902-44.413,33.133-56.415c0.381-0.632,1.137-0.932,1.848-0.735c0.711,0.198,1.202,0.846,1.202,1.584
			l0.009,341.32c0,13.465,10.916,24.38,24.38,24.38s24.38-10.915,24.38-24.38V292.744h10.525V487.62
			c0,13.465,10.916,24.38,24.38,24.38s24.38-10.915,24.38-24.38c0-322.44-0.432-137.792-0.442-341.563
			c0-2.347,1.902-4.251,4.251-4.252c2.347-0.001,4.252,1.902,4.253,4.25c0,0.009,0,0.019,0,0.028l0.75,149.262
			c0.057,11.187,9.141,20.215,20.315,20.215c0.034,0,0.07,0,0.104,0c11.221-0.057,20.271-9.199,20.215-20.419L441.383,145.879z"/>
	</g>
</g>
<g>
	<g>
		<circle cx="144.59" cy="161.126" r="38.231"/>
	</g>
</g>
<g>
	<g>
		<path d="M109.815,212.547c-5.34,0-19.124-1.132-30.519,11.565c-5.481,6.107-8.842,14.151-8.886,22.96
			c0,0-0.489,97.44-0.542,107.721c-0.041,8.098,6.49,14.695,14.588,14.736c0.026,0,0.051,0,0.076,0
			c8.063,0,14.621-6.516,14.661-14.589c0.06-11.965,0.478-95.143,0.542-107.721c0.009-1.562,1.279-2.821,2.839-2.817
			c1.561,0.004,2.823,1.271,2.823,2.831v19.339h0.001c5.721-7.503,8.012-16.31,8.523-24.701
			C114.703,228.99,111.327,217.115,109.815,212.547z"/>
	</g>
</g>
<g>
	<g>
		<path d="M183.063,281.894c-12.535-9.923-18.851-23.565-19.926-40.023c-0.66-10.099,0.644-20.195,3.342-29.325h-44.362
			c2.697,9.123,4.002,19.22,3.342,29.325c-1.079,16.519-7.434,30.202-20.062,40.133l0.007,211.7c0,9.717,7.877,17.595,17.594,17.595
			c9.717,0,17.594-7.878,17.594-17.595v-140.64h7.598v140.641c0,9.717,7.877,17.595,17.594,17.595s17.594-7.878,17.594-17.595
			C183.381,360.997,183.063,281.923,183.063,281.894z"/>
	</g>
</g>
<g>
	<g>
		<path d="M218.524,247.072c-0.028-5.619-1.413-10.925-3.829-15.62c-5.767-11.208-17.451-18.906-30.869-18.906h-5.046
			c-1.513,4.57-4.889,16.444-4.104,29.325c0.506,8.323,2.767,17.057,8.388,24.52v-19.164c0-1.693,1.371-3.066,3.063-3.069
			c1.693-0.002,3.068,1.366,3.073,3.06c0,0,0.488,97.027,0.542,107.721c0.04,8.073,6.596,14.589,14.661,14.589
			c0.024,0,0.05,0,0.076,0c8.098-0.041,14.629-6.638,14.588-14.736C219.006,342.885,218.589,259.769,218.524,247.072z"/>
	</g>
</g>
<g>
	<g>
		<circle cx="338.935" cy="42.108" r="42.108"/>
	</g>
</g>
</svg>