<?xml version="1.0" encoding="UTF-8" standalone="no"?>
<!-- Generator: Adobe Illustrator 16.0.0, SVG Export Plug-In . SVG Version: 6.00 Build 0)  -->

<svg
   version="1.1"
   id="Capa_1"
   x="0px"
   y="0px"
   width="190.255px"
   height="190.255px"
   viewBox="0 0 190.255 190.255"
   style="enable-background:new 0 0 190.255 190.255;"
   xml:space="preserve"
   sodipodi:docname="books_sciences.svg"
   inkscape:version="1.1.2 (0a00cf5339, 2022-02-04, custom)"
   xmlns:inkscape="http://www.inkscape.org/namespaces/inkscape"
   xmlns:sodipodi="http://sodipodi.sourceforge.net/DTD/sodipodi-0.dtd"
   xmlns="http://www.w3.org/2000/svg"
   xmlns:svg="http://www.w3.org/2000/svg"><defs
   id="defs936" /><sodipodi:namedview
   id="namedview934"
   pagecolor="#ffffff"
   bordercolor="#666666"
   borderopacity="1.0"
   inkscape:pageshadow="2"
   inkscape:pageopacity="0.0"
   inkscape:pagecheckerboard="0"
   showgrid="false"
   inkscape:zoom="3.85798"
   inkscape:cx="94.997901"
   inkscape:cy="94.997901"
   inkscape:window-width="1460"
   inkscape:window-height="1012"
   inkscape:window-x="745"
   inkscape:window-y="6"
   inkscape:window-maximized="0"
   inkscape:current-layer="Capa_1" />
<g
   id="g901"
   style="fill:#9eabb0">
	<g
   id="g899"
   style="fill:#9eabb0">
		<path
   d="M136.473,83.965c-0.4,0.031-0.737,0.15-1.043,0.303c-0.5-0.713-1.139-1.34-1.446-2.281    c-0.545-1.666,0.334-3.407,1.189-4.787c0.856-1.381-1.156-2.963-2.26-1.743c-1.659,1.833-2.657,4.013-2.552,6.52    c0.045,1.051,0.423,2.421,1.086,3.541c-5.413,0.648-10.798,3.933-14.74,7.317c-8.064,6.92-12.547,15.119-13.483,25.732    c-0.461,5.225,0.295,10.198,1.99,14.738c-0.416,0.321-0.8,0.706-1.189,1.066c-1.89,1.746-4.026,3.228-6.118,4.72    c-4.047,2.889-8.302,5.533-12.124,8.725c-1.381,1.153,0.42,3.439,1.909,2.475c4.343-2.815,8.736-5.555,13.075-8.375    c1.396-0.907,4.468-2.418,6.423-4.259c1.323,2.439,2.928,4.716,4.774,6.783c-2.922,2.128-5.83,5.221-7.74,8.37    c-11.742-3.144-34.58,20.151-32.943,31.41c1.632,11.22,14.627,4.063,19.582,0.275c7.509-5.742,17.794-15.074,20.183-24.696    c0.365-1.47-0.461-2.753-1.84-3.241c-0.138-0.049-0.267-0.088-0.401-0.135c-0.069-0.117-0.14-0.229-0.212-0.34    c1.347-1.4,2.672-2.82,3.984-4.252c1.208-1.317,2.589-2.558,2.351-4.429c5.984,5.349,13.737,8.848,22.087,9.598    c20.066,1.801,34.65-17.264,34.869-35.725C172.085,104.479,154.224,82.591,136.473,83.965z M138.999,151.699    c-17.428,0.804-30.121-14.905-30.498-31.189c-0.401-17.304,14.471-28.894,30.232-31.204c13.694,0.729,26.334,17.284,27.704,29.917    C168.224,135.695,155.473,150.94,138.999,151.699z"
   id="path881"
   style="fill:#9eabb0" />
		<path
   d="M141.362,124.765c-0.714-2.23-1.12-4.462-1.331-6.794c-0.18-1.998,0.199-4.692-0.543-6.57    c-0.903-2.288-3.884-2.389-4.754,0c-0.759,2.086-0.098,5.182,0.14,7.323c0.157,1.43,0.333,2.921,0.672,4.359    c-3.236,0.055-6.761,0.167-9.311,1.57c-0.629,0.347-0.884,1.1-0.722,1.774c-0.077-0.323,0.075,0.486,0.299,0.746    c0.176,0.204,0.39,0.245,0.587,0.199c1.354,0.661,3.685,0.188,4.919,0.19c2.563,0.004,5.138,0.116,7.695,0.283    C140.564,127.947,141.825,126.211,141.362,124.765z"
   id="path883"
   style="fill:#9eabb0" />
		<path
   d="M134.41,38.446c-0.942-2.623-3.52-3.973-5.699-5.517c-4.689-3.319-9.659-6.23-14.435-9.428    c-5.671-3.797-11.498-7.357-17.153-11.182c-5.511-3.727-10.825-8.631-16.798-11.56c-0.252-0.124-0.507-0.113-0.723-0.024    c-0.554-0.56-1.411-0.868-2.169-0.679c-2.603,0.647-4.69,2.966-6.838,4.504c-3.927,2.812-8.035,5.372-12.162,7.877    c-7.933,4.814-16.162,8.985-24.537,12.947c-1.947,0.921-0.46,3.426,1.318,3.205c0.084,0.372,0.298,0.713,0.684,0.933    c2.939,1.667,5.811,3.434,8.644,5.257c5.652,5.302,12.8,9.455,19.076,13.446c0.407,0.259,0.825,0.501,1.233,0.757    c7.363,5.445,15.752,13.158,24.695,15.434c0.845,0.215,1.674-0.228,2.158-0.884c0.227,0.038,0.469,0.039,0.731-0.036    c8.196-2.322,16.286-5.913,23.942-9.608c4.164-2.01,16.096-6.735,15.555-12.653c0.288,0.028,0.588,0.023,0.934-0.072    C133.962,40.865,134.816,39.578,134.41,38.446z M63.83,34.177c-2.025,1.309-4.036,2.631-6.023,3.971    c-1.914-1.286-3.847-2.54-5.807-3.747c-0.523-0.374-1.031-0.769-1.551-1.149c9.847-8.616,23.776-12.681,35.07-19.067    c1.724,1.479,3.453,2.952,5.182,4.425C81.2,22.883,72.232,28.057,63.83,34.177z"
   id="path885"
   style="fill:#9eabb0" />
		<path
   d="M82.985,67.494c-2.792-2.938-6.855-4.967-10.21-7.118c-4.974-3.188-10.008-6.284-15.032-9.394    c-5.123-3.173-10.251-6.338-15.369-9.519c-4.398-2.733-8.759-6.308-13.622-8.123c-0.004-0.001-0.007-0.001-0.011-0.002    c-0.91-0.397-2.085-0.29-2.819,0.731c-3.738,5.193-6.081,13.862-1.565,19.129c-0.188,0.347-0.191,0.775,0.185,1.1    c9.306,8.035,19.463,15.185,29.554,22.18c5.628,3.902,11.344,7.725,17.333,11.056c2.21,1.229,6.044,3.798,8.402,1.575    c0.718-0.677,0.63-1.497,0.168-2.085c-0.003-0.043,0.01-0.079,0.004-0.123c-0.911-6.256,0.683-11.496,5.24-15.897    C87.01,69.297,84.917,66.835,82.985,67.494z"
   id="path887"
   style="fill:#9eabb0" />
		<path
   d="M79.005,96.546c-0.079,0.092-0.148,0.199-0.225,0.294c-3.736-3.614-9.487-6.338-13.525-8.848    c-12.38-7.694-25.528-14.135-38.105-21.496c-0.011-0.007-0.022-0.005-0.033-0.012c-0.34-0.323-0.801-0.543-1.234-0.59    c-4.108-0.442-5.517,5.956-5.829,8.905c-0.394,3.733,0.628,7.551,2.886,10.48c0.081,0.3,0.302,0.563,0.633,0.773    c0.455,0.506,0.941,0.988,1.479,1.421c0.402,0.323,0.92,0.327,1.339,0.148c2.982,2.112,6.036,4.107,9.134,6.033    c-0.268,0.668-0.007,1.606,0.812,1.886c2.055,0.701,4.082,1.473,6.094,2.277c11.883,6.975,24.1,13.42,35.161,21.753    c1.081,0.815,2.424,0.072,2.925-1.001c1.007-0.014,1.933-1.172,1.268-2.146c-3.583-5.257-3.138-12.188,0.635-17.244    C83.898,97.198,80.602,94.683,79.005,96.546z"
   id="path889"
   style="fill:#9eabb0" />
		<path
   d="M80.626,128.946c-0.217-0.295-0.496-0.564-0.824-0.887c-0.066-0.064-0.138-0.091-0.207-0.142    c-4.464-4.683-11.753-8.245-17.018-11.38c-11.118-6.622-22.29-13.118-33.853-18.942c-0.573-0.682-1.56-1.075-2.597-0.637    c-7.983,3.373-11.219,18.002-2.819,22.786c9.208,7.905,20.663,13.976,30.978,20.056c6.136,3.618,12.318,7.213,18.724,10.337    c2.296,1.12,5.801,3.333,8.191,1.354c0.214-0.177,0.338-0.4,0.424-0.639c0.217-0.37,0.281-0.845,0.062-1.321    c-2.723-5.904-2.668-11.668,0.807-17.26C83.522,130.615,82.126,129.067,80.626,128.946z"
   id="path891"
   style="fill:#9eabb0" />
		<path
   d="M135.749,60.352c0.221-0.646-0.004-1.438-0.837-1.659c-2.506-0.666-4.442-1.908-4.391-4.708    c0.022-1.19,0.723-2.284,1.515-3.11c0.935-0.976,2.276-1.175,2.605-2.63c0.139-0.613-0.081-1.254-0.642-1.578    c-3.726-2.15-6.947,4.517-7.157,7.318c-0.318,4.263,3.515,7.243,7.451,7.262c-2.516,1.854-4.674,4.305-7.274,6.106    c-4.689,3.247-9.792,5.92-14.878,8.482c-8.908,4.487-18.134,7.935-27.555,11.133c-2.223,0.755-1.985,4.417,0.578,4.27    c10.129-0.583,20.735-6.426,29.662-10.809c6.566-3.225,21.715-9.282,23.833-17.334C139.11,61.38,137.372,59.752,135.749,60.352z"
   id="path893"
   style="fill:#9eabb0" />
		<path
   d="M98.338,107.832c-2.123-0.271-4.368,1.46-6.148,2.469c-2.412,1.367-4.66,2.961-6.848,4.657    c-1.204,0.933,0.331,2.736,1.578,2.046c2.058-1.142,4.132-2.265,6.245-3.3c2.01-0.986,4.804-1.358,6.369-2.985    C100.648,109.559,99.745,108.012,98.338,107.832z"
   id="path895"
   style="fill:#9eabb0" />
		<path
   d="M99.874,123.457c-0.627-0.746-1.653-0.651-2.441-0.315c-2.129,0.908-4.167,2.007-6.176,3.154    c-1.049,0.599-2.13,1.233-3.068,1.999c-0.671,0.548-1.292,1.527-1.445,1.739c-0.557,0.77,0.504,1.691,1.25,1.25    c0,0,0.001-0.001,0.003-0.002c0.024,0,0.032,0.004,0.06,0.004c0.434,0,0.831-0.21,1.212-0.387c1.072-0.499,2.143-1,3.218-1.493    c2.079-0.951,4.243-2.108,6.497-2.584c0.626-0.132,1.294-0.765,1.407-1.406C100.534,124.608,100.401,124.086,99.874,123.457z"
   id="path897"
   style="fill:#9eabb0" />
	</g>
</g>
<g
   id="g903">
</g>
<g
   id="g905">
</g>
<g
   id="g907">
</g>
<g
   id="g909">
</g>
<g
   id="g911">
</g>
<g
   id="g913">
</g>
<g
   id="g915">
</g>
<g
   id="g917">
</g>
<g
   id="g919">
</g>
<g
   id="g921">
</g>
<g
   id="g923">
</g>
<g
   id="g925">
</g>
<g
   id="g927">
</g>
<g
   id="g929">
</g>
<g
   id="g931">
</g>
</svg>
