<?xml version="1.0" encoding="iso-8859-1"?>
<!-- Uploaded to: SVG Repo, www.svgrepo.com, Generator: SVG Repo Mixer Tools -->
<svg fill="#000000" height="800px" width="800px" version="1.1" id="Layer_1" xmlns="http://www.w3.org/2000/svg" xmlns:xlink="http://www.w3.org/1999/xlink" 
	 viewBox="0 0 471.09 471.09" xml:space="preserve">
<g>
	<g>
		<g>
			<path d="M78.015,94.528c0,0.001,0,0.001,0,0.001c0.826,0.001,87.094,0.259,87.92,0.259c4.28,0,7.75-3.469,7.75-7.75
				s-3.469-7.75-7.75-7.75h-22.571c-4.807-10.998-14.565-19.546-26.336-21.97c0.621-3.002-2.7-5.546-6.8-5.546
				c-4.1,0-7.416,2.544-6.801,5.54c-15.81,3.256-28.002,17.566-29.421,34.009c-0.071,0.825,0.207,1.642,0.767,2.252
				C75.769,94.658,76.876,94.528,78.015,94.528z"/>
			<path d="M110.229,133.123c14.725,0,27.177-9.72,31.297-23.093H78.932C83.051,123.403,95.504,133.123,110.229,133.123z"/>
			<path d="M468.87,115.875c-4.06-6.111-12.304-7.774-18.417-3.715l-41.335,27.458c1.861-17.178-12.067-32.871-22.757-32.871
				c-6.297,0-11.647,3.992-13.698,9.578c-3.963-12.709-15.821-21.934-29.834-21.934c-14.014,0-25.872,9.225-29.835,21.934
				c-2.051-5.586-7.401-9.578-13.698-9.578c-10.638,0-24.476,15.539-22.779,32.617c0,0-30.714-20.402-40.952-27.203
				c-4.291-2.851-9.448-2.509-13.839-0.518c-23.04,10.453-81.422,35.043-81.422,35.043c-28.868,0-17.375,0-48.248,0L25.157,65.27
				c-4.976-6.055-13.918-6.931-19.975-1.955c-6.056,4.976-6.931,13.919-1.955,19.975l70.768,86.126v94.236L33.412,397.337
				c-2.732,9,2.349,18.511,11.349,21.243c9.02,2.736,18.517-2.367,21.243-11.349L103.81,282.69H117l12.275,121.311
				c0.947,9.357,9.3,16.177,18.659,15.229c9.358-0.947,16.176-9.301,15.229-18.659c-14.789-146.148-13.758-136.319-13.997-137.586
				v-88.722l80.68-34.004l80.436,53.432c0.227,0.151,0.459,0.289,0.694,0.425l-2.489,20.349l-18.37,94.842
				c-0.419,2.163,0.151,4.399,1.552,6.1c1.401,1.7,3.49,2.692,5.693,2.692c1.941,0,4.147,0,6.564,0l-16.128,82.205
				c-1.695,8.64,3.935,17.018,12.574,18.713c1.037,0.204,2.068,0.301,3.087,0.301c7.466,0,14.135-5.272,15.626-12.875l17.332-88.344
				c5.306,0,10.692,0,15.958,0l13.065,87.625c1.18,7.912,7.982,13.593,15.748,13.593c0.781,0,1.574-0.058,2.37-0.176
				c8.709-1.298,14.716-9.411,13.417-18.119l-12.364-82.923c1.304,0,2.542,0,3.676,0c2.205,0,4.294-0.986,5.696-2.687
				c1.402-1.701,1.969-3.94,1.55-6.105l-18.37-94.842l-2.466-20.161c0.351-0.19,0.698-0.391,1.032-0.613l89.422-59.401
				C471.266,130.232,472.929,121.986,468.87,115.875z M364.371,169.341h-42.726l-38.894-25.836
				c4.721-7.061,10.01-7.549,16.544-7.549c5.283,0,9.897-2.815,12.462-7.016c1.65,15.704,14.93,27.943,31.071,27.943
				s29.421-12.239,31.071-27.943c2.565,4.202,7.178,7.016,12.461,7.016c6.584,0,11.904,0.496,16.653,7.715L364.371,169.341z"/>
		</g>
	</g>
</g>
</svg>