<?xml version="1.0" encoding="UTF-8" standalone="no"?>
<!-- Uploaded to: SVG Repo, www.svgrepo.com, Generator: SVG Repo Mixer Tools -->

<svg
   fill="#000000"
   height="800px"
   width="800px"
   version="1.1"
   id="Layer_1"
   viewBox="0 0 471.09 471.09"
   xml:space="preserve"
   sodipodi:docname="kids_fee_no.svg"
   inkscape:version="1.2.2 (732a01da63, 2022-12-09)"
   xmlns:inkscape="http://www.inkscape.org/namespaces/inkscape"
   xmlns:sodipodi="http://sodipodi.sourceforge.net/DTD/sodipodi-0.dtd"
   xmlns="http://www.w3.org/2000/svg"
   xmlns:svg="http://www.w3.org/2000/svg"><defs
   id="defs13027" /><sodipodi:namedview
   id="namedview13025"
   pagecolor="#ffffff"
   bordercolor="#000000"
   borderopacity="0.25"
   inkscape:showpageshadow="2"
   inkscape:pageopacity="0.0"
   inkscape:pagecheckerboard="0"
   inkscape:deskcolor="#d1d1d1"
   showgrid="false"
   inkscape:zoom="1.4796209"
   inkscape:cx="396.38531"
   inkscape:cy="208.16142"
   inkscape:window-width="1920"
   inkscape:window-height="1017"
   inkscape:window-x="-8"
   inkscape:window-y="-8"
   inkscape:window-maximized="1"
   inkscape:current-layer="g13018" />
<g
   id="g13022"
   style="display:inline">
	<g
   id="g13020"
   style="display:inline">
		<g
   id="g13018">
			<rect
   style="display:inline;fill:#ff0000;stroke-width:0.588862"
   id="rect13207"
   width="471.09"
   height="470.52716"
   x="0"
   y="0" /><path
   d="m 244.754,53.248762 c -2.8994,2.06711 -6.44766,3.283043 -10.28008,3.283043 -9.79127,0 -17.72864,-7.937367 -17.72864,-17.728651 0,-9.791267 7.93737,-17.728652 17.72864,-17.728652 6.34685,0 11.91467,3.335117 15.04656,8.348377 m -42.90587,83.269231 h 13.22198 c 1.72394,0 3.43729,0.20515 5.10849,0.61493 l 13.97063,3.39528 c 3.03109,0.73851 6.18932,0.80995 9.25232,0.21527 l 15.44674,-3.00525 c 4.0801,-0.79475 7.83401,-2.74896 10.77544,-5.61035 l 10.92897,-10.631126 c 3.12074,-3.03056 3.12074,-7.949 0,-10.984654 -2.80974,-2.733761 -7.25963,-3.04122 -10.43863,-0.723327 l -12.73677,9.292861 c -1.82402,1.33318 -4.04366,2.05093 -6.32608,2.05093 h -12.29964 7.82898 c 4.41239,0 7.98701,-3.47734 7.98701,-7.7697 v -1.55404 c 0,-3.563964 -2.49366,-6.671547 -6.047,-7.533161 L 241.20371,77.51087 c -1.96636,-0.476644 -3.98032,-0.717748 -6.00495,-0.717748 -4.88701,0 -13.73316,4.046181 -13.73316,4.046181 l -14.85099,6.210591 m 70.9146,-43.181407 c 0,9.791284 -7.93738,17.728651 -17.72865,17.728651 -9.79128,0 -17.72864,-7.937367 -17.72864,-17.728651 0,-9.791284 7.93736,-17.728651 17.72864,-17.728651 9.79127,0 17.72865,7.937367 17.72865,17.728651 z m -91.1759,41.029151 v 29.378892 c 0,2.8371 0,4.25538 0.55208,5.33887 0.48564,0.95329 1.26055,1.72778 2.21363,2.21355 1.08352,0.55212 2.50198,0.55212 5.3388,0.55212 h 4.05228 c 2.83682,0 4.25527,0 5.33881,-0.55212 0.95308,-0.48577 1.72797,-1.26026 2.21364,-2.21355 0.55206,-1.08349 0.55206,-2.50177 0.55206,-5.33887 V 84.897638 c 0,-2.837084 0,-4.255376 -0.55206,-5.338861 -0.48567,-0.953295 -1.26056,-1.727773 -2.21364,-2.213529 -1.08354,-0.552126 -2.50199,-0.552126 -5.33881,-0.552126 h -4.05228 c -2.83682,0 -4.25528,0 -5.3388,0.552126 -0.95308,0.485756 -1.72799,1.260234 -2.21363,2.213529 -0.55208,1.083485 -0.55208,2.501777 -0.55208,5.338861 z"
   stroke="#000000"
   stroke-width="10.1306"
   stroke-linecap="round"
   stroke-linejoin="round"
   id="path14354"
   style="fill:none;stroke:#ffffff" /><path
   d="m 78.015,94.528 c 0,10e-4 0,10e-4 0,10e-4 0.826,0.001 87.094,0.259 87.92,0.259 4.28,0 7.75,-3.469 7.75,-7.75 0,-4.281 -3.469,-7.75 -7.75,-7.75 h -22.571 c -4.807,-10.998 -14.565,-19.546 -26.336,-21.97 0.621,-3.002 -2.7,-5.546 -6.8,-5.546 -4.1,0 -7.416,2.544 -6.801,5.54 -15.81,3.256 -28.002,17.566 -29.421,34.009 -0.071,0.825 0.207,1.642 0.767,2.252 0.996,1.085 2.103,0.955 3.242,0.955 z"
   id="path13012"
   style="display:inline;fill:#ffffff" />
			<path
   d="m 110.229,133.123 c 14.725,0 27.177,-9.72 31.297,-23.093 H 78.932 c 4.119,13.373 16.572,23.093 31.297,23.093 z"
   id="path13014"
   style="display:inline;fill:#ffffff" />
			<path
   d="m 468.87,115.875 c -4.06,-6.111 -12.304,-7.774 -18.417,-3.715 l -41.335,27.458 c 1.861,-17.178 -12.067,-32.871 -22.757,-32.871 -6.297,0 -11.647,3.992 -13.698,9.578 -3.963,-12.709 -15.821,-21.934 -29.834,-21.934 -14.014,0 -25.872,9.225 -29.835,21.934 -2.051,-5.586 -7.401,-9.578 -13.698,-9.578 -10.638,0 -20.49618,46.5816 -18.79918,63.6596 -1.02008,-1.19009 -25.98368,18.54718 -31.40043,17.37097 -0.52162,2.44338 -22.29501,6.9101 -26.57443,9.82954 C 196.29811,184.18119 140.304,146.686 140.304,146.686 H 92.056 L 25.157,65.27 C 20.181,59.215 11.239,58.339 5.182,63.315 -0.874,68.291 -1.749,77.234 3.227,83.29 l 70.768,86.126 v 94.236 L 33.412,397.337 c -2.732,9 2.349,18.511 11.349,21.243 9.02,2.736 18.517,-2.367 21.243,-11.349 L 103.81,282.69 H 117 l 12.275,121.311 c 0.947,9.357 9.3,16.177 18.659,15.229 9.358,-0.947 16.176,-9.301 15.229,-18.659 C 148.374,254.423 149.405,264.252 149.166,262.985 V 185.4065 L 225.86618,235.77468 310.282,193.691 c 0.227,0.151 0.459,0.289 0.694,0.425 l -2.489,20.349 -18.37,94.842 c -0.419,2.163 0.151,4.399 1.552,6.1 1.401,1.7 3.49,2.692 5.693,2.692 h 6.564 l -16.128,82.205 c -1.695,8.64 3.935,17.018 12.574,18.713 1.037,0.204 2.068,0.301 3.087,0.301 7.466,0 14.135,-5.272 15.626,-12.875 l 17.332,-88.344 h 15.958 l 13.065,87.625 c 1.18,7.912 7.982,13.593 15.748,13.593 0.781,0 1.574,-0.058 2.37,-0.176 8.709,-1.298 14.716,-9.411 13.417,-18.119 l -12.364,-82.923 h 3.676 c 2.205,0 4.294,-0.986 5.696,-2.687 1.402,-1.701 1.969,-3.94 1.55,-6.105 l -18.37,-94.842 -2.466,-20.161 c 0.351,-0.19 0.698,-0.391 1.032,-0.613 l 89.422,-59.401 c 6.115,-4.058 7.778,-12.304 3.719,-18.415 z m -104.499,53.466 -85.31007,0.79596 3.69007,-28.22389 c 4.721,-7.061 10.01,-5.95707 16.544,-5.95707 5.283,0 9.897,-2.815 12.462,-7.016 1.65,15.704 14.93,27.943 31.071,27.943 16.141,0 29.421,-12.239 31.071,-27.943 2.565,4.202 7.178,7.016 12.461,7.016 6.584,0 11.904,0.496 16.653,7.715 z"
   id="path13016"
   style="display:inline;fill:#ffffff"
   sodipodi:nodetypes="cccscscsccccccccccccccccccccccccccscccsccccscccsscccccccccscscscc" />
		<rect
   style="fill:#ff0000;stroke:none;stroke-width:0.588862"
   id="rect14581"
   width="12.337441"
   height="31.440577"
   x="270.62778"
   y="138.49774" /></g>
	</g>
</g>
</svg>
