<?xml version="1.0" encoding="UTF-8" standalone="no"?>
<!-- Uploaded to: SVG Repo, www.svgrepo.com, Generator: SVG Repo Mixer Tools -->

<svg
   fill="#000000"
   height="800px"
   width="800px"
   version="1.1"
   id="Layer_1"
   viewBox="0 0 471.09 471.09"
   xml:space="preserve"
   sodipodi:docname="kids_yes.svg"
   inkscape:version="1.2.2 (732a01da63, 2022-12-09)"
   xmlns:inkscape="http://www.inkscape.org/namespaces/inkscape"
   xmlns:sodipodi="http://sodipodi.sourceforge.net/DTD/sodipodi-0.dtd"
   xmlns="http://www.w3.org/2000/svg"
   xmlns:svg="http://www.w3.org/2000/svg"><defs
   id="defs13027" /><sodipodi:namedview
   id="namedview13025"
   pagecolor="#ffffff"
   bordercolor="#000000"
   borderopacity="0.25"
   inkscape:showpageshadow="2"
   inkscape:pageopacity="0.0"
   inkscape:pagecheckerboard="0"
   inkscape:deskcolor="#d1d1d1"
   showgrid="false"
   inkscape:zoom="1.04625"
   inkscape:cx="377.06093"
   inkscape:cy="417.6822"
   inkscape:window-width="1920"
   inkscape:window-height="1017"
   inkscape:window-x="-8"
   inkscape:window-y="-8"
   inkscape:window-maximized="1"
   inkscape:current-layer="g13018" />
<g
   id="g13022"
   style="display:inline">
	<g
   id="g13020"
   style="display:inline">
		<g
   id="g13018">
			<rect
   style="display:inline;fill:#008000;stroke-width:0.588862"
   id="rect13207"
   width="471.09"
   height="470.52716"
   x="0"
   y="0" /><path
   d="m 78.015,94.528 c 0,10e-4 0,10e-4 0,10e-4 0.826,0.001 87.094,0.259 87.92,0.259 4.28,0 7.75,-3.469 7.75,-7.75 0,-4.281 -3.469,-7.75 -7.75,-7.75 h -22.571 c -4.807,-10.998 -14.565,-19.546 -26.336,-21.97 0.621,-3.002 -2.7,-5.546 -6.8,-5.546 -4.1,0 -7.416,2.544 -6.801,5.54 -15.81,3.256 -28.002,17.566 -29.421,34.009 -0.071,0.825 0.207,1.642 0.767,2.252 0.996,1.085 2.103,0.955 3.242,0.955 z"
   id="path13012"
   style="display:inline;fill:#ffffff" />
			<path
   d="m 110.229,133.123 c 14.725,0 27.177,-9.72 31.297,-23.093 H 78.932 c 4.119,13.373 16.572,23.093 31.297,23.093 z"
   id="path13014"
   style="display:inline;fill:#ffffff" />
			<path
   d="m 468.87,115.875 c -4.06,-6.111 -12.304,-7.774 -18.417,-3.715 l -41.335,27.458 c 1.861,-17.178 -12.067,-32.871 -22.757,-32.871 -6.297,0 -11.647,3.992 -13.698,9.578 -3.963,-12.709 -15.821,-21.934 -29.834,-21.934 -14.014,0 -25.872,9.225 -29.835,21.934 -2.051,-5.586 -7.401,-9.578 -13.698,-9.578 -10.638,0 -24.476,15.539 -22.779,32.617 0,0 -30.714,-20.402 -40.952,-27.203 -4.291,-2.851 -9.448,-2.509 -13.839,-0.518 -23.04,10.453 -81.422,35.043 -81.422,35.043 -28.868,0 -17.375,0 -48.248,0 L 25.157,65.27 C 20.181,59.215 11.239,58.339 5.182,63.315 -0.874,68.291 -1.749,77.234 3.227,83.29 l 70.768,86.126 v 94.236 L 33.412,397.337 c -2.732,9 2.349,18.511 11.349,21.243 9.02,2.736 18.517,-2.367 21.243,-11.349 L 103.81,282.69 H 117 l 12.275,121.311 c 0.947,9.357 9.3,16.177 18.659,15.229 9.358,-0.947 16.176,-9.301 15.229,-18.659 C 148.374,254.423 149.405,264.252 149.166,262.985 v -88.722 l 80.68,-34.004 80.436,53.432 c 0.227,0.151 0.459,0.289 0.694,0.425 l -2.489,20.349 -18.37,94.842 c -0.419,2.163 0.151,4.399 1.552,6.1 1.401,1.7 3.49,2.692 5.693,2.692 1.941,0 4.147,0 6.564,0 l -16.128,82.205 c -1.695,8.64 3.935,17.018 12.574,18.713 1.037,0.204 2.068,0.301 3.087,0.301 7.466,0 14.135,-5.272 15.626,-12.875 l 17.332,-88.344 c 5.306,0 10.692,0 15.958,0 l 13.065,87.625 c 1.18,7.912 7.982,13.593 15.748,13.593 0.781,0 1.574,-0.058 2.37,-0.176 8.709,-1.298 14.716,-9.411 13.417,-18.119 l -12.364,-82.923 c 1.304,0 2.542,0 3.676,0 2.205,0 4.294,-0.986 5.696,-2.687 1.402,-1.701 1.969,-3.94 1.55,-6.105 l -18.37,-94.842 -2.466,-20.161 c 0.351,-0.19 0.698,-0.391 1.032,-0.613 l 89.422,-59.401 c 6.115,-4.058 7.778,-12.304 3.719,-18.415 z m -104.499,53.466 h -42.726 l -38.894,-25.836 c 4.721,-7.061 10.01,-7.549 16.544,-7.549 5.283,0 9.897,-2.815 12.462,-7.016 1.65,15.704 14.93,27.943 31.071,27.943 16.141,0 29.421,-12.239 31.071,-27.943 2.565,4.202 7.178,7.016 12.461,7.016 6.584,0 11.904,0.496 16.653,7.715 z"
   id="path13016"
   style="display:inline;fill:#ffffff" />
		</g>
	</g>
</g>
</svg>
