<?xml version="1.0" encoding="UTF-8" standalone="no"?>
<!-- Generator: Adobe Illustrator 19.0.0, SVG Export Plug-In . SVG Version: 6.00 Build 0)  -->

<svg
   version="1.1"
   id="Layer_1"
   x="0px"
   y="0px"
   viewBox="0 0 512.001 512.001"
   style="enable-background:new 0 0 512.001 512.001;"
   xml:space="preserve"
   sodipodi:docname="library_unknow.svg"
   inkscape:version="1.1.2 (0a00cf5339, 2022-02-04, custom)"
   xmlns:inkscape="http://www.inkscape.org/namespaces/inkscape"
   xmlns:sodipodi="http://sodipodi.sourceforge.net/DTD/sodipodi-0.dtd"
   xmlns="http://www.w3.org/2000/svg"
   xmlns:svg="http://www.w3.org/2000/svg"><defs
   id="defs1746" /><sodipodi:namedview
   id="namedview1744"
   pagecolor="#ffffff"
   bordercolor="#666666"
   borderopacity="1.0"
   inkscape:pageshadow="2"
   inkscape:pageopacity="0.0"
   inkscape:pagecheckerboard="0"
   showgrid="false"
   inkscape:zoom="1.4042942"
   inkscape:cx="256.00049"
   inkscape:cy="255.64444"
   inkscape:window-width="1920"
   inkscape:window-height="1027"
   inkscape:window-x="-8"
   inkscape:window-y="-8"
   inkscape:window-maximized="1"
   inkscape:current-layer="layer1" />
<g
   id="g1711">
	
</g><g
   inkscape:groupmode="layer"
   id="layer2"
   inkscape:label="Layer 2"><rect
     style="fill:#000000;fill-opacity:1;stroke:none;stroke-width:3.77953;stroke-linecap:round;stroke-linejoin:round"
     id="rect2497"
     width="514.13727"
     height="512.71307"
     x="-0.71210152"
     y="0" /></g><g
   inkscape:groupmode="layer"
   id="layer1"
   inkscape:label="Layer 1"><g
     id="g1709"
     style="fill:#ffffff;fill-opacity:1"
     transform="translate(4.7108197e-4,-0.35434698)"><g
       id="g1707"
       style="fill:#ffffff;fill-opacity:1"><path
         d="m 503.467,397.763 h -55.893 l 19.831,-5.316 c 4.548,-1.22 7.245,-5.896 6.033,-10.445 l -13.252,-49.451 v -0.009 l -8.832,-32.973 h -0.009 L 385.093,52.3 c -1.203,-4.557 -5.888,-7.262 -10.445,-6.033 l -82.432,22.084 c -2.176,0.58 -4.045,2.014 -5.18,3.977 -1.135,1.954 -1.434,4.284 -0.853,6.468 l 13.252,49.451 v 0.008 l 5.086,18.987 c -6.903,-3.473 -14.677,-5.478 -22.921,-5.478 H 34.134 c -3.072,0 -5.905,1.655 -7.424,4.326 -1.519,2.679 -1.476,5.956 0.111,8.593 l 9.839,16.401 c 8.09,13.491 8.09,30.259 0,43.75 l -7.356,12.262 H 8.534 c -3.072,0 -5.905,1.655 -7.424,4.326 -1.519,2.679 -1.476,5.956 0.111,8.593 l 9.839,16.401 c 8.09,13.491 8.09,30.259 0,43.75 l -9.839,16.401 c -1.587,2.637 -1.63,5.922 -0.111,8.593 1.519,2.68 4.352,4.335 7.424,4.335 h 20.77 l 7.356,12.254 c 8.09,13.491 8.09,30.259 0,43.75 l -7.356,12.262 H 8.534 c -4.71,0 -8.533,3.823 -8.533,8.533 v 51.2 c 0,4.71 3.823,8.533 8.533,8.533 h 494.933 c 4.719,0 8.533,-3.823 8.533,-8.533 v -51.2 c 10e-4,-4.708 -3.814,-8.531 -8.533,-8.531 z M 395.273,288.102 c -0.742,0.196 -1.485,0.29 -2.219,0.29 -3.772,0 -7.219,-2.517 -8.235,-6.323 l -26.505,-98.918 c -1.212,-4.548 1.485,-9.233 6.042,-10.445 4.548,-1.237 9.233,1.476 10.445,6.033 l 26.505,98.91 c 1.212,4.556 -1.484,9.232 -6.033,10.453 z m -11.204,-173.688 4.42,16.486 -65.946,17.672 -4.412,-16.495 z M 370.817,64.955 379.658,97.928 313.712,115.6 304.88,82.627 Z M 51.295,162.303 49.213,158.83 h 232.388 c 15.556,0 28.57,10.522 32.666,24.772 l 0.836,3.132 c 0.384,2.022 0.631,4.096 0.631,6.229 0,18.816 -15.309,34.133 -34.133,34.133 h -25.6 -206.789 l 2.082,-3.473 c 11.35,-18.918 11.35,-42.41 0.001,-61.32 z m 213.239,115.994 c 0,4.71 -3.814,8.533 -8.533,8.533 H 68.267 c -4.71,0 -8.533,-3.823 -8.533,-8.533 0,-4.71 3.823,-8.533 8.533,-8.533 H 256 c 4.72,-0.001 8.534,3.822 8.534,8.533 z m 17.067,119.466 H 49.212 l 2.082,-3.473 c 11.349,-18.918 11.349,-42.411 0,-61.321 l -2.082,-3.473 H 256 281.6 c 18.825,0 34.133,15.309 34.133,34.133 10e-4,18.817 -15.308,34.134 -34.132,34.134 z m 38.058,0 c 8.141,-9.071 13.141,-21.018 13.141,-34.133 0,-24.354 -17.101,-44.749 -39.919,-49.911 8.849,-9.207 14.319,-21.675 14.319,-35.422 0,-13.747 -5.47,-26.223 -14.319,-35.43 13.073,-2.953 24.26,-10.897 31.437,-21.743 l 47.334,176.64 h -51.993 z m 51.473,-67.857 65.946,-17.673 4.412,16.486 -65.937,17.673 z m 8.832,32.965 65.946,-17.664 8.832,32.964 -65.937,17.673 z"
         id="path1701"
         style="fill:#ffffff;fill-opacity:1" /><path
         d="M 281.603,355.095 H 93.87 c -4.719,0 -8.533,3.823 -8.533,8.533 0,4.71 3.814,8.533 8.533,8.533 h 187.733 c 4.719,0 8.533,-3.823 8.533,-8.533 10e-4,-4.71 -3.814,-8.533 -8.533,-8.533 z"
         id="path1703"
         style="fill:#ffffff;fill-opacity:1" /><path
         d="m 93.87,201.495 h 187.733 c 4.719,0 8.533,-3.823 8.533,-8.533 0,-4.71 -3.814,-8.533 -8.533,-8.533 H 93.87 c -4.719,0 -8.533,3.823 -8.533,8.533 0,4.71 3.814,8.533 8.533,8.533 z"
         id="path1705"
         style="fill:#ffffff;fill-opacity:1" /></g></g></g>
<g
   id="g1713">
</g>
<g
   id="g1715">
</g>
<g
   id="g1717">
</g>
<g
   id="g1719">
</g>
<g
   id="g1721">
</g>
<g
   id="g1723">
</g>
<g
   id="g1725">
</g>
<g
   id="g1727">
</g>
<g
   id="g1729">
</g>
<g
   id="g1731">
</g>
<g
   id="g1733">
</g>
<g
   id="g1735">
</g>
<g
   id="g1737">
</g>
<g
   id="g1739">
</g>
<g
   id="g1741">
</g>
</svg>
