<?xml version="1.0" encoding="UTF-8" standalone="no"?>
<svg
   width="32"
   height="32"
   viewBox="0 0 8.4666662 8.4666669"
   version="1.1"
   id="svg8"
   inkscape:version="1.1.2 (0a00cf5339, 2022-02-04, custom)"
   sodipodi:docname="wheelchair_yes.svg"
   inkscape:export-filename="C:\a\GitHub\accessibilitat\icons\wheelchair_limited_shop.png"
   inkscape:export-xdpi="96"
   inkscape:export-ydpi="96"
   xmlns:inkscape="http://www.inkscape.org/namespaces/inkscape"
   xmlns:sodipodi="http://sodipodi.sourceforge.net/DTD/sodipodi-0.dtd"
   xmlns="http://www.w3.org/2000/svg"
   xmlns:svg="http://www.w3.org/2000/svg"
   xmlns:rdf="http://www.w3.org/1999/02/22-rdf-syntax-ns#"
   xmlns:cc="http://creativecommons.org/ns#"
   xmlns:dc="http://purl.org/dc/elements/1.1/">
  <defs
     id="defs2" />
  <sodipodi:namedview
     id="base"
     pagecolor="#ffffff"
     bordercolor="#666666"
     borderopacity="1.0"
     inkscape:pageopacity="0.0"
     inkscape:pageshadow="2"
     inkscape:zoom="15.839192"
     inkscape:cx="9.343911"
     inkscape:cy="15.026019"
     inkscape:document-units="mm"
     inkscape:current-layer="layer4"
     showgrid="false"
     units="px"
     inkscape:window-width="1920"
     inkscape:window-height="1027"
     inkscape:window-x="-8"
     inkscape:window-y="-8"
     inkscape:window-maximized="1"
     inkscape:document-rotation="0"
     inkscape:showpageshadow="false"
     showborder="true"
     inkscape:pagecheckerboard="true" />
  <metadata
     id="metadata5">
    <rdf:RDF>
      <cc:Work
         rdf:about="">
        <dc:format>image/svg+xml</dc:format>
        <dc:type
           rdf:resource="http://purl.org/dc/dcmitype/StillImage" />
      </cc:Work>
    </rdf:RDF>
  </metadata>
  <g
     inkscape:groupmode="layer"
     id="layer4"
     inkscape:label="Capa 3"
     style="display:inline">
    <rect
       style="fill:#008000;stroke-width:0.264999;stroke-linecap:round"
       id="rect2045"
       width="8.502512"
       height="8.4691029"
       x="-0.03340869"
       y="-0.016704345"
       rx="1.302938"
       ry="0.033407725" />
  </g>
  <g
     inkscape:label="Capa 1"
     inkscape:groupmode="layer"
     id="layer1"
     transform="translate(0,-161.53332)"
     style="display:inline">
    <path
       style="fill:#ffffff;stroke-width:1"
       d="m 2.1550629,169.73328 c -0.8177582,-0.14657 -1.48755929,-0.67043 -1.79821421,-1.40641 -0.14707343,-0.34844 -0.19828824,-0.63005 -0.18474275,-1.01583 0.00739,-0.21046 0.0176802,-0.28999 0.0576207,-0.4453 0.0839142,-0.3263 0.18992277,-0.55488 0.38364476,-0.82722 0.12753128,-0.17929 0.4093563,-0.45257 0.5898496,-0.57196 0.1324534,-0.0876 0.3928537,-0.22588 0.4714042,-0.2503 l 0.036957,-0.0115 v 0.41731 0.41731 l -0.037806,0.0172 c -0.020793,0.009 -0.09596,0.064 -0.1670369,0.12119 -0.2499803,0.20109 -0.442419,0.50266 -0.52819849,0.82773 -0.037413,0.14178 -0.0432999,0.19684 -0.0430273,0.40242 2.6986e-4,0.20353 0.006572,0.26205 0.0433431,0.40242 0.14635759,0.5587 0.57732459,0.98958 1.13514379,1.13491 0.1400377,0.0365 0.1993635,0.0428 0.402418,0.0431 0.2045802,2.4e-4 0.2612065,-0.006 0.4015564,-0.0426 0.3848076,-0.10094 0.7098464,-0.33346 0.9227564,-0.66009 0.1052899,-0.16153 0.1782844,-0.32676 0.2137637,-0.48386 l 0.025884,-0.11462 H 4.223954 4.36753 l 0.1438162,0.31618 c 0.079099,0.17391 0.1439604,0.33239 0.1441364,0.35219 1.758e-4,0.0198 -0.035002,0.0989 -0.078174,0.17583 -0.2341873,0.41722 -0.6306697,0.79357 -1.0479894,0.99478 -0.1551607,0.0748 -0.3765334,0.15076 -0.5529958,0.18974 -0.1675031,0.037 -0.6543003,0.0473 -0.821261,0.0174 z m 3.4110944,-0.51182 c -0.1446662,-0.0454 -0.1905041,-0.11253 -0.3971324,-0.58161 -0.101474,-0.23036 -0.2527935,-0.57036 -0.3362655,-0.75556 -0.083472,-0.18519 -0.1667357,-0.37182 -0.1850303,-0.41474 l -0.033263,-0.078 -0.9135162,-2e-4 c -1.0013429,-2.1e-4 -0.9940708,4e-4 -1.2002127,-0.1005 -0.1405686,-0.0688 -0.3224823,-0.2484 -0.3928421,-0.38784 -0.102082,-0.20231 -0.1006606,-0.18266 -0.1006463,-1.3915 l 1.3e-5,-1.10114 0.046698,-0.0985 c 0.053087,-0.11204 0.1512114,-0.20894 0.2633451,-0.26006 0.1043527,-0.0476 0.4347412,-0.0587 0.5998387,-0.0203 0.3185055,0.0742 0.5673102,0.33622 0.6219043,0.65494 l 0.018831,0.10994 h 0.71675 0.7167501 l 0.099802,0.0499 c 0.1088358,0.0544 0.1951929,0.13924 0.2535726,0.24915 0.053882,0.10144 0.053882,0.31888 0,0.42032 -0.054609,0.10282 -0.137297,0.18766 -0.2363777,0.24255 l -0.087112,0.0483 -0.7350286,0.005 -0.7350286,0.005 v 0.27859 0.27859 h 0.7225334 c 0.8089363,0 0.8123052,4.3e-4 0.9589409,0.12058 0.087536,0.0717 0.1231284,0.13967 0.3713854,0.7089 0.1103185,0.25294 0.228144,0.52273 0.2618345,0.59952 0.03369,0.0768 0.07917,0.18198 0.1010658,0.23377 0.021896,0.0518 0.048387,0.0943 0.05887,0.0944 0.010482,1.5e-4 0.1028742,-0.0379 0.2053152,-0.0847 0.2234688,-0.10193 0.3419905,-0.11929 0.4591162,-0.0672 0.1637425,0.0728 0.2596354,0.20354 0.273209,0.37264 0.010742,0.13382 -0.039807,0.25357 -0.1453755,0.34441 -0.08324,0.0716 -1.0235559,0.52896 -1.1151907,0.54239 -0.031619,0.005 -0.093157,-0.003 -0.1367533,-0.0165 z m -3.0116779,-5.5432 c -0.2169629,-0.0688 -0.4139977,-0.25394 -0.4999167,-0.46983 -0.054753,-0.13758 -0.054753,-0.39868 0,-0.53626 0.1573272,-0.39532 0.609422,-0.60262 0.9927877,-0.45524 0.3749193,0.14415 0.5868687,0.56628 0.471595,0.93927 -0.057508,0.18608 -0.1594618,0.32231 -0.3196962,0.42716 -0.192963,0.12626 -0.4338997,0.16173 -0.6447698,0.0949 z"
       id="path1249" />
  </g>
  <g
     inkscape:groupmode="layer"
     id="layer2"
     inkscape:label="Capa 2"
     style="display:inline" />
</svg>
